Coordinates
version=1
nRows=23
nColumns=30
inDegrees=yes

Units are S.I. units (second, meters, Newtons, ...)
Angles are in degrees.

endheader
time	floatyaw	floatroll	floatpitch	floatx	floaty	floatz	pro_sup_l	deviation_l	flexion_l	cmc_flexion_l	cmc_abduction_l	mp_flexion_l	ip_flexion_l	2mcp_flexion_l	2mcp_abduction_l	2pm_flexion_l	2md_flexion_l	3mcp_flexion_l	3mcp_abduction_l	3pm_flexion_l	3md_flexion_l	4mcp_flexion_l	4mcp_abduction_l	4pm_flexion_l	4md_flexion_l	5mcp_flexion_l	5mcp_abduction_l	5pm_flexion_l	5md_flexion_l
-0.495000	-2.809327	-3.522153	94.733797	0.065715	-0.242569	0.081578	92.869715	16.109964	8.645425	5.367504	14.426266	-15.864432	-17.563545	39.734538	8.495022	24.672727	17.743287	31.870034	5.667272	26.278218	23.405850	18.413050	-3.528221	43.009034	33.650244	3.502103	-10.025190	45.232068	38.768769
-0.485000	-2.809327	-3.522153	94.733797	0.071406	-0.242044	0.087103	93.486546	16.872964	9.383409	4.625248	14.919763	-15.904549	-17.377465	40.717362	8.680150	24.778781	18.003238	33.226212	5.747460	26.188863	23.720331	19.712024	-3.620458	42.885277	34.091436	4.290507	-10.026054	45.287394	39.084908
-0.475000	-2.809327	-3.522153	94.733797	0.077178	-0.241684	0.092755	94.267111	17.607054	10.174705	3.910345	15.454039	-15.936652	-17.197209	41.591658	8.878938	24.960591	18.360616	34.488554	5.836833	26.160622	24.093449	20.933197	-3.726851	42.902064	34.589353	4.924630	-10.041239	45.469954	39.482969
-0.465000	-2.809327	-3.522153	94.733797	0.083004	-0.241490	0.098493	95.212613	18.306718	11.034993	3.231968	16.028461	-15.957683	-17.024869	42.352287	9.076944	25.212095	18.813318	35.627557	5.927138	26.210537	24.548022	22.081514	-3.833629	43.058930	35.129175	5.414080	-10.083206	45.760954	39.948953
-0.455000	-2.809327	-3.522153	94.733797	0.088856	-0.241479	0.104253	96.300272	18.965178	11.979129	2.597932	16.634679	-15.966796	-16.865483	43.016817	9.258442	25.515696	19.346326	36.631528	6.009400	26.343239	25.105225	23.171650	-3.929069	43.343876	35.696798	5.811401	-10.156403	46.127332	40.467349
-0.445000	-2.809327	-3.522153	94.733797	0.094698	-0.241669	0.109964	97.491981	19.575385	13.016830	2.013961	17.258066	-15.965363	-16.723390	43.608661	9.411655	25.852300	19.938894	37.505594	6.076444	26.548607	25.776373	24.225806	-4.008284	43.728682	36.273480	6.188272	-10.253549	46.528513	41.021579
-0.435000	-2.809327	-3.522153	94.733797	0.100491	-0.242076	0.115568	98.745497	20.130761	14.149976	1.483218	17.882856	-15.956196	-16.600069	44.141741	9.532393	26.211581	20.571899	38.265227	6.125399	26.809333	26.557193	25.269262	-4.075408	44.172509	36.834844	6.611735	-10.358256	46.925126	41.592393
-0.425000	-2.809327	-3.522153	94.733797	0.106199	-0.242712	0.121029	100.024064	20.626022	15.371789	1.005047	18.499516	-15.941640	-16.493192	44.615051	9.624688	26.596324	21.231676	38.928612	6.158905	27.113066	27.426866	26.323733	-4.141561	44.634754	37.356845	7.131163	-10.453253	47.287754	42.156321
-0.415000	-2.809327	-3.522153	94.733797	0.111792	-0.243581	0.126333	101.302015	21.058342	16.667314	0.573939	19.109811	-15.921313	-16.396377	45.017018	9.698495	27.018668	21.910058	39.511942	6.184006	27.460192	28.351639	27.400598	-4.219369	45.090382	37.824254	7.775135	-10.529372	47.603526	42.687179
-0.405000	-2.809327	-3.522153	94.733797	0.117252	-0.244682	0.131478	102.566002	21.428555	18.014647	0.180749	19.725973	-15.891003	-16.300016	45.333635	9.765761	27.491385	22.603205	40.029326	6.208854	27.861071	29.291649	28.497291	-4.316819	45.538157	38.235087	8.551852	-10.589644	47.878014	43.162156
-0.395000	-2.809327	-3.522153	94.733797	0.122559	-0.246006	0.136464	103.813161	21.741562	19.387025	-0.183257	20.364156	-15.843933	-16.193809	45.554669	9.836434	28.019927	23.311889	40.495831	6.238736	28.324027	30.209674	29.598676	-4.433487	45.996838	38.598785	9.449748	-10.646041	48.130686	43.570430
-0.385000	-2.809327	-3.522153	94.733797	0.127690	-0.247542	0.141281	105.047874	22.005372	20.756082	-0.521258	21.035696	-15.774172	-16.070688	45.676175	9.915577	28.599553	24.043585	40.929713	6.273530	28.842694	31.080581	30.682581	-4.560736	46.492308	38.931209	10.439964	-10.711363	48.385251	43.919362
-0.375000	-2.809327	-3.522153	94.733797	0.132614	-0.249272	0.145909	106.277776	22.228840	22.095766	-0.827419	21.740636	-15.680637	-15.930773	45.700554	10.002279	29.218480	24.814124	41.350248	6.308048	29.392955	31.899139	31.727054	-4.685547	47.043830	39.250356	11.482980	-10.791825	48.660063	44.233729
-0.365000	-2.809327	-3.522153	94.733797	0.137298	-0.251182	0.150320	107.508905	22.418850	23.385654	-1.087251	22.466436	-15.569531	-15.783400	45.636097	10.090623	29.864742	25.645691	41.771299	6.335013	29.943443	32.682180	32.716934	-4.796000	47.656679	39.573711	12.538106	-10.884818	48.964549	44.547335
-0.355000	-2.809327	-3.522153	94.733797	0.141713	-0.253260	0.154489	108.740751	22.578188	24.612440	-1.282303	23.192037	-15.453418	-15.645461	45.497146	10.172422	30.532608	26.559438	42.195237	6.348892	30.473654	33.461523	33.648084	-4.885819	48.323407	39.915658	13.571713	-10.982269	49.303394	44.890758
-0.345000	-2.809327	-3.522153	94.733797	0.145842	-0.255496	0.158392	109.963430	22.705519	25.768929	-1.397599	23.895108	-15.346680	-15.535747	45.304586	10.240785	31.224902	27.564822	42.612594	6.348570	30.987776	34.268630	34.528334	-4.956066	49.030803	40.284034	14.561220	-11.076449	49.684021	45.280963
-0.335000	-2.809327	-3.522153	94.733797	0.149679	-0.257871	0.162017	111.158893	22.797941	26.850969	-1.428334	24.559131	-15.259291	-15.467450	45.085332	10.293109	31.949785	28.651255	43.008612	6.337747	31.514787	35.118406	35.374806	-5.013657	49.767098	40.677292	15.495145	-11.164362	50.120271	45.717186
-0.325000	-2.809327	-3.522153	94.733797	0.153229	-0.260352	0.165360	112.305837	22.854917	27.853967	-1.382195	25.177217	-15.192289	-15.442678	44.869590	10.332121	32.713572	29.787353	43.372337	6.323318	32.094299	36.001708	36.208226	-5.067854	50.525077	41.084838	16.371204	-11.248638	50.628758	46.184080
-0.315000	-2.809327	-3.522153	94.733797	0.156499	-0.262896	0.168426	113.385751	22.881213	28.771241	-1.276166	25.751202	-15.137495	-15.451987	44.686083	10.364418	33.513526	30.928651	43.702243	6.312688	32.756626	36.890957	37.045972	-5.126414	51.300293	41.491513	17.193593	-11.335364	51.220919	46.659640
-0.305000	-2.809327	-3.522153	94.733797	0.159493	-0.265454	0.171221	114.387177	22.886849	29.595544	-1.130028	26.287299	-15.081542	-15.479020	44.556681	10.397298	34.335075	32.029982	44.005287	6.311217	33.508666	37.754597	37.896320	-5.192864	52.087240	41.884222	17.969395	-11.430754	51.897129	47.123720
-0.295000	-2.809327	-3.522153	94.733797	0.162218	-0.267982	0.173753	115.306643	22.883765	30.322933	-0.960225	26.791332	-15.012111	-15.507796	44.492042	10.435671	35.155626	33.057691	44.290895	6.320662	34.332794	38.571576	38.755696	-5.265750	52.877489	42.257268	18.704346	-11.538568	52.646581	47.563744
-0.285000	-2.809327	-3.522153	94.733797	0.164678	-0.270448	0.176033	116.146553	22.880811	30.956363	-0.776487	27.266223	-14.923610	-15.529495	44.489264	10.480634	35.953347	33.998724	44.564189	6.339050	35.197298	39.338994	39.609419	-5.339963	53.661476	42.613993	19.399355	-11.659013	53.451425	47.976573
-0.275000	-2.809327	-3.522153	94.733797	0.166886	-0.272832	0.178075	116.911658	22.879720	31.506201	-0.581553	27.712131	-14.820019	-15.546126	44.532254	10.530220	36.716421	34.864624	44.822733	6.361885	36.070486	40.070815	40.435500	-5.409419	54.432109	42.964533	20.049502	-11.788907	54.291183	48.367119
